<svg width="79" height="72" viewBox="0 0 79 72" fill="none" xmlns="http://www.w3.org/2000/svg">
<path d="M60.3956 53.2901L66.3507 57.2584C66.9281 57.6435 67.631 57.7928 68.315 57.6757C68.9991 57.5586 69.6123 57.1839 70.0286 56.6286L78.1714 45.7715L73.8286 42.5144L67.2247 51.3195L61.2207 47.3132C60.6345 46.9216 59.9189 46.7735 59.2254 46.9001C58.5319 47.0267 57.9149 47.4183 57.5049 47.9918L48.8572 60.1002V38.7144H43.4286V65.8572C43.4286 67.297 44.0005 68.6777 45.0186 69.6958C46.0366 70.7138 47.4174 71.2858 48.8572 71.2858H76V65.8572H51.4167L60.3956 53.2901Z" fill="#0C0F0B"/>
<path d="M0 52.2858H38V57.7144H0V52.2858ZM0 65.8572H38V71.2858H0V65.8572ZM24.4286 38.7144V25.1429H27.1429C30.0212 25.1393 32.7807 23.9943 34.816 21.959C36.8514 19.9236 37.9964 17.1642 38 14.2858V6.14293H29.8571C27.0778 6.14804 24.4073 7.2242 22.401 9.14764C20.9961 6.59502 18.9321 4.46604 16.4243 2.98272C13.9164 1.49939 11.0565 0.716044 8.14286 0.714355H0V8.85721C0.00502852 13.1749 1.72245 17.3143 4.77553 20.3674C7.8286 23.4205 11.968 25.1379 16.2857 25.1429H19V38.7144H0V44.1429H38V38.7144H24.4286ZM29.8571 11.5715H32.5714V14.2858C32.5714 15.7255 31.9995 17.1063 30.9814 18.1244C29.9634 19.1424 28.5826 19.7144 27.1429 19.7144H24.4286V17.0001C24.4286 15.5603 25.0005 14.1795 26.0186 13.1615C27.0366 12.1434 28.4174 11.5715 29.8571 11.5715ZM16.2857 19.7144C13.4073 19.7108 10.6479 18.5657 8.61252 16.5304C6.57719 14.4951 5.43216 11.7356 5.42857 8.85721V6.14293H8.14286C11.0212 6.14652 13.7807 7.29155 15.816 9.32688C17.8514 11.3622 18.9964 14.1217 19 17.0001V19.7144H16.2857Z" fill="#0A5D00"/>
</svg>
