<svg width="77" height="76" viewBox="0 0 77 76" fill="none" xmlns="http://www.w3.org/2000/svg">
<path d="M76.8572 46.1429H66V35.2857H60.5715V59.7143H17.1429V16.2857H41.5715V10.8571H30.7143V0H25.2857V10.8571H17.1429C15.7031 10.8571 14.3224 11.4291 13.3043 12.4471C12.2863 13.4652 11.7143 14.846 11.7143 16.2857V24.4286H0.857178V29.8571H11.7143V46.1429H0.857178V51.5714H11.7143V59.7143C11.7143 61.154 12.2863 62.5348 13.3043 63.5529C14.3224 64.5709 15.7031 65.1429 17.1429 65.1429H25.2857V76H30.7143V65.1429H47V76H52.4286V65.1429H60.5715C62.0105 65.1407 63.3901 64.5681 64.4077 63.5505C65.4253 62.5329 65.9979 61.1534 66 59.7143V51.5714H76.8572V46.1429Z" fill="#0A5D00"/>
<path d="M66.0001 0C63.1214 0.0028743 60.3616 1.14767 58.3261 3.18316C56.2906 5.21864 55.1458 7.97853 55.1429 10.8571C55.1536 12.7899 55.6853 14.684 56.6819 16.34L48.5906 24.4286H25.2858V51.5714H52.4286V28.2666L60.5172 20.178C62.1735 21.1737 64.0676 21.7044 66.0001 21.7143C68.8795 21.7143 71.6411 20.5704 73.6772 18.5343C75.7133 16.4982 76.8572 13.7366 76.8572 10.8571C76.8572 7.97765 75.7133 5.21609 73.6772 3.17998C71.6411 1.14387 68.8795 0 66.0001 0ZM47.0001 46.1429H30.7143V29.8571H47.0001V46.1429ZM66.0001 16.2857C64.9264 16.2857 63.8768 15.9673 62.9841 15.3708C62.0914 14.7743 61.3956 13.9265 60.9847 12.9346C60.5738 11.9426 60.4663 10.8511 60.6758 9.79808C60.8853 8.74504 61.4023 7.77776 62.1615 7.01856C62.9207 6.25936 63.888 5.74234 64.941 5.53288C65.994 5.32342 67.0855 5.43092 68.0775 5.8418C69.0694 6.25267 69.9172 6.94847 70.5137 7.84119C71.1102 8.73392 71.4286 9.78347 71.4286 10.8571C71.4286 12.2969 70.8567 13.6777 69.8386 14.6957C68.8206 15.7138 67.4398 16.2857 66.0001 16.2857Z" fill="#0C0F0B"/>
</svg>
