<svg width="77" height="76" viewBox="0 0 77 76" fill="none" xmlns="http://www.w3.org/2000/svg">
<path d="M24.7143 10.8571V0H30.1429V10.8571H49.1429V0H54.5715V10.8571H65.4286V46.1429H76.2858V51.5714H65.4286V59.7143C65.4286 65.1429 56.381 65.5952 51.8572 65.1429V76H46.4286V65.1429H30.1429V76H24.7143V65.1429H16.5715C11.1429 66.2286 10.6905 56.5476 11.1429 51.5714H0.285767V46.1429H11.1429V29.8571H0.285767V24.4286H11.1429V16.2857C11.1429 10.8571 20.1905 10.4048 24.7143 10.8571Z" fill="#0C0F0B"/>
<rect x="24.7142" y="27.1428" width="27.1429" height="27.1429" fill="#0A5D00"/>
<circle cx="66.7858" cy="12.2144" r="9.5" fill="#0A5D00"/>
<path d="M60 19L49.1428 29.8571" stroke="#0A5D00"/>
</svg>
