<svg width="79" height="72" viewBox="0 0 79 72" fill="none" xmlns="http://www.w3.org/2000/svg">
<path d="M61.1099 53.2901L67.065 57.2584C67.6424 57.6435 68.3453 57.7928 69.0293 57.6757C69.7134 57.5586 70.3266 57.1839 70.7429 56.6286L78.8857 45.7715L74.5429 42.5144L67.939 51.3195L61.935 47.3132C61.3488 46.9216 60.6332 46.7735 59.9397 46.9001C59.2462 47.0267 58.6291 47.4183 58.2192 47.9918L49.5715 60.1002V38.7144H44.1429V65.8572C44.1429 67.297 44.7148 68.6777 45.7329 69.6958C46.7509 70.7138 48.1317 71.2858 49.5715 71.2858H76.7143V65.8572H52.131L61.1099 53.2901Z" fill="#0A5D00"/>
<path d="M0.714294 52.2858H38.7143V57.7144H0.714294V52.2858ZM0.714294 65.8572H38.7143V71.2858H0.714294V65.8572ZM25.1429 38.7144V25.1429H27.8572C30.7355 25.1393 33.495 23.9943 35.5303 21.959C37.5657 19.9236 38.7107 17.1642 38.7143 14.2858V6.14293H30.5714C27.7921 6.14804 25.1216 7.2242 23.1153 9.14764C21.7104 6.59502 19.6464 4.46604 17.1386 2.98272C14.6307 1.49939 11.7708 0.716044 8.85715 0.714355H0.714294V8.85721C0.719323 13.1749 2.43675 17.3143 5.48982 20.3674C8.5429 23.4205 12.6823 25.1379 17 25.1429H19.7143V38.7144H0.714294V44.1429H38.7143V38.7144H25.1429ZM30.5714 11.5715H33.2857V14.2858C33.2857 15.7255 32.7138 17.1063 31.6957 18.1244C30.6777 19.1424 29.2969 19.7144 27.8572 19.7144H25.1429V17.0001C25.1429 15.5603 25.7148 14.1795 26.7329 13.1615C27.7509 12.1434 29.1317 11.5715 30.5714 11.5715ZM17 19.7144C14.1216 19.7108 11.3621 18.5657 9.32682 16.5304C7.29148 14.4951 6.14646 11.7356 6.14287 8.85721V6.14293H8.85715C11.7355 6.14652 14.495 7.29155 16.5303 9.32688C18.5657 11.3622 19.7107 14.1217 19.7143 17.0001V19.7144H17Z" fill="#0C0F0B"/>
</svg>
